<svg id="Layer_1" enable-background="new 0 0 510 510" height="512" viewBox="0 0 510 510" width="512" xmlns="http://www.w3.org/2000/svg"><path d="m510 359.806c-7.259 0-52.693 0-60 0v-285c-4.132-99.522-145.905-99.445-150 0v180c-2.479 59.713-87.543 59.667-90 0v-105c-4.132-99.522-145.905-99.445-150 0v210c-7.259 0-52.693 0-60 0v30h30v120h90v-120h30v-30c-7.259 0-52.693 0-60 0v-210c2.479-59.713 87.543-59.667 90 0v105c4.132 99.522 145.905 99.445 150 0v-180c2.479-59.713 87.543-59.667 90 0v285c-7.259 0-52.693 0-60 0v30h30v120h90v-120h30zm-420 120h-30v-90h30zm360 0h-30v-90h30z"/></svg>