<svg id="Capa_1" enable-background="new 0 0 512.005 512.005" height="512" viewBox="0 0 512.005 512.005" width="512" xmlns="http://www.w3.org/2000/svg"><g><path d="m45.002 482.005h17v15c0 8.284 6.502 15 14.787 15s15.213-6.716 15.213-15v-15h332v15c0 8.284 6.502 15 14.787 15s15.213-6.716 15.213-15v-15.045c32.259-.951 58-27.47 58-59.955 0-28.405-19.848-52.247-46.4-58.426l-26.817-241.356 2.961-.987c4.512-1.504 8.043-5.059 9.517-9.58l30-92c2.568-7.876-1.734-16.343-9.61-18.911-7.877-2.57-16.343 1.734-18.911 9.61l-27.656 84.811-82.827 27.609c-7.859 2.62-12.106 11.115-9.487 18.974 2.62 7.859 11.114 12.106 18.974 9.487l10.256-3.419v220.726c-59.12 4.341-157.269 11.564-320.354 23.586-.002 0-.005 0-.007 0-23.349 1.732-41.639 21.444-41.639 44.876 0 24.813 20.187 45 45 45zm347-344.189 17.677-5.892 25.694 231.249c-8.828.641-22.414 1.632-43.371 3.168zm-348.141 284.231c137.06-10.103 395.842-29.162 408.575-30.039 16.342.234 29.566 13.601 29.566 29.997 0 16.542-13.458 30-30 30h-407c-8.271 0-15-6.729-15-15 0-7.811 6.088-14.382 13.859-14.958z"/></g></svg>